<svg width="20" height="20" viewBox="0 0 20 20" fill="none" xmlns="http://www.w3.org/2000/svg">
<path fill-rule="evenodd" clip-rule="evenodd" d="M10 0C4.48 0 0 4.48 0 10C0 15.52 4.48 20 10 20C15.52 20 20 15.52 20 10C20 4.48 15.52 0 10 0ZM9.99976 3C11.6598 3 12.9998 4.34 12.9998 6C12.9998 7.66 11.6598 9 9.99976 9C8.33976 9 6.99976 7.66 6.99976 6C6.99976 4.34 8.33976 3 9.99976 3ZM4.00012 13.98C5.29012 15.92 7.50012 17.2 10.0001 17.2C12.5001 17.2 14.7101 15.92 16.0001 13.98C15.9701 11.99 11.9901 10.9 10.0001 10.9C8.00012 10.9 4.03012 11.99 4.00012 13.98Z" fill="#637381"/>
</svg>
