<svg width="39" height="41" viewBox="0 0 39 41" fill="none" xmlns="http://www.w3.org/2000/svg">
<g style="mix-blend-mode:lighten">
<ellipse cx="19.5" cy="20.5" rx="20.5" ry="19.5" transform="rotate(-90 19.5 20.5)" fill="#FFDD28"/>
</g>
<path d="M20.2071 16.224C19.8166 15.8335 19.1834 15.8335 18.7929 16.224L12.4289 22.588C12.0384 22.9785 12.0384 23.6117 12.4289 24.0022C12.8195 24.3927 13.4526 24.3927 13.8431 24.0022L19.5 18.3453L25.1569 24.0022C25.5474 24.3927 26.1805 24.3927 26.5711 24.0022C26.9616 23.6117 26.9616 22.9785 26.5711 22.588L20.2071 16.224ZM20.5 17.9311V16.9311H18.5V17.9311H20.5Z" fill="#074269"/>
<path d="M20.7071 16.2929C20.3166 15.9024 19.6834 15.9024 19.2929 16.2929L12.9289 22.6569C12.5384 23.0474 12.5384 23.6805 12.9289 24.0711C13.3195 24.4616 13.9526 24.4616 14.3431 24.0711L20 18.4142L25.6569 24.0711C26.0474 24.4616 26.6805 24.4616 27.0711 24.0711C27.4616 23.6805 27.4616 23.0474 27.0711 22.6569L20.7071 16.2929ZM21 18V17H19V18H21Z" fill="#074269"/>
</svg>
