<svg width="15" height="14" viewBox="0 0 15 14" fill="none" xmlns="http://www.w3.org/2000/svg">
<path d="M9.92026 13.2719L14.1257 8.39867C14.4908 7.97399 14.6958 7.39952 14.6958 6.80071C14.6958 6.20191 14.4908 5.62743 14.1257 5.20276L9.92026 0.329556C9.73659 0.118477 9.48814 0 9.22916 0C8.97018 0 8.72173 0.118477 8.53806 0.329556C8.44618 0.434911 8.37325 0.560255 8.32349 0.698359C8.27372 0.836462 8.2481 0.984591 8.2481 1.1342C8.2481 1.28381 8.27372 1.43194 8.32349 1.57004C8.37325 1.70815 8.44618 1.83349 8.53806 1.93885L11.7632 5.66741L0.98007 5.66741C0.720082 5.66741 0.470743 5.78681 0.286903 5.99935C0.103065 6.21188 -0.000213623 6.50014 -0.000213623 6.80071C-0.000213623 7.10128 0.103065 7.38954 0.286903 7.60208C0.470743 7.81461 0.720082 7.93402 0.98007 7.93402L11.7632 7.93402L8.53806 11.6626C8.35347 11.8745 8.24925 12.1625 8.24833 12.4632C8.24741 12.764 8.34987 13.0528 8.53316 13.2662C8.71645 13.4796 8.96556 13.6001 9.2257 13.6012C9.48583 13.6022 9.73567 13.4838 9.92026 13.2719Z" fill="white"/>
</svg>
