<svg width="26" height="22" viewBox="0 0 26 22" fill="none" xmlns="http://www.w3.org/2000/svg">
<path d="M23.8397 9.16958H5.50147L11.5347 3.13631C11.7066 2.96583 11.8431 2.76301 11.9362 2.53954C12.0293 2.31607 12.0772 2.07638 12.0772 1.8343C12.0772 1.59221 12.0293 1.35252 11.9362 1.12905C11.8431 0.905585 11.7066 0.702762 11.5347 0.532285C11.1912 0.190734 10.7264 -0.000976562 10.2419 -0.000976562C9.75743 -0.000976562 9.29265 0.190734 8.94906 0.532285L1.08196 8.41772C0.393194 9.10237 0.00409454 10.0323 0 11.0034C0.00892446 11.9682 0.397654 12.8906 1.08196 13.5708L8.94906 21.4562C9.12004 21.626 9.32279 21.7604 9.54573 21.8518C9.76867 21.9432 10.0074 21.9899 10.2484 21.989C10.4893 21.9882 10.7278 21.9399 10.9501 21.8469C11.1723 21.7539 11.3741 21.618 11.5439 21.447C11.7137 21.276 11.8481 21.0733 11.9396 20.8503C12.031 20.6274 12.0776 20.3886 12.0767 20.1477C12.0759 19.9067 12.0276 19.6683 11.9346 19.446C11.8416 19.2237 11.7057 19.0219 11.5347 18.8522L5.50147 12.8372H23.8397C24.3261 12.8372 24.7925 12.644 25.1364 12.3001C25.4803 11.9562 25.6735 11.4898 25.6735 11.0034C25.6735 10.517 25.4803 10.0506 25.1364 9.7067C24.7925 9.36279 24.3261 9.16958 23.8397 9.16958Z" fill="#D9EEFC"/>
</svg>
