<svg width="25" height="24" viewBox="0 0 25 24" fill="none" xmlns="http://www.w3.org/2000/svg">
<path d="M12.9988 12C13.79 12 14.5633 11.7654 15.2211 11.3259C15.8789 10.8864 16.3916 10.2616 16.6944 9.53073C16.9971 8.79983 17.0763 7.99556 16.922 7.21964C16.7676 6.44371 16.3867 5.73098 15.8273 5.17157C15.2679 4.61216 14.5551 4.2312 13.7792 4.07686C13.0033 3.92252 12.199 4.00173 11.4681 4.30448C10.7372 4.60723 10.1125 5.11992 9.67296 5.77772C9.23343 6.43552 8.99884 7.20887 8.99884 8C8.99884 9.06087 9.42026 10.0783 10.1704 10.8284C10.9206 11.5786 11.938 12 12.9988 12ZM12.9988 6C13.3944 6 13.7811 6.1173 14.11 6.33706C14.4389 6.55682 14.6952 6.86918 14.8466 7.23463C14.998 7.60009 15.0376 8.00222 14.9604 8.39018C14.8832 8.77814 14.6928 9.13451 14.413 9.41421C14.1333 9.69392 13.777 9.8844 13.389 9.96157C13.0011 10.0387 12.5989 9.99913 12.2335 9.84776C11.868 9.69638 11.5557 9.44004 11.3359 9.11114C11.1161 8.78224 10.9988 8.39556 10.9988 8C10.9988 7.46957 11.2095 6.96086 11.5846 6.58579C11.9597 6.21071 12.4684 6 12.9988 6ZM21.6588 9.157L20.9398 8.918C21.0692 7.79792 20.9604 6.66315 20.6204 5.58809C20.2805 4.51302 19.7172 3.52196 18.9673 2.67989C18.2175 1.83782 17.2982 1.16376 16.2696 0.701913C15.241 0.240067 14.1264 0.000867481 12.9988 0C11.8566 0.000440969 10.7277 0.245694 9.68825 0.719235C8.64879 1.19278 7.7229 1.8836 6.97296 2.74518C6.22302 3.60675 5.66645 4.61905 5.34075 5.71387C5.01505 6.80869 4.92778 7.96061 5.08484 9.092C4.12787 9.27043 3.24296 9.72192 2.53684 10.392C2.04801 10.8567 1.6594 11.4166 1.39491 12.037C1.13042 12.6575 0.995634 13.3255 0.998835 14V18.075C1.00094 19.1563 1.35263 20.208 2.00143 21.0731C2.65022 21.9381 3.56135 22.5702 4.59884 22.875L7.46884 23.775C7.9509 23.925 8.45297 24.0009 8.95784 24C9.41583 23.9994 9.87163 23.9368 10.3128 23.814L16.0928 22.104C16.6078 21.9635 17.1509 21.9635 17.6658 22.104L20.0528 22.904C20.6411 23.0472 21.2543 23.055 21.846 22.9267C22.4377 22.7985 22.9926 22.5376 23.4689 22.1637C23.9451 21.7898 24.3303 21.3127 24.5953 20.7683C24.8603 20.2239 24.9983 19.6265 24.9988 19.021V13.872C24.9966 12.8374 24.6744 11.8288 24.0764 10.9845C23.4785 10.1402 22.634 9.50155 21.6588 9.156V9.157ZM8.75684 3.762C9.31309 3.20349 9.97417 2.76032 10.7021 2.45793C11.4301 2.15554 12.2106 1.99988 12.9988 1.99988C13.7871 1.99988 14.5676 2.15554 15.2956 2.45793C16.0235 2.76032 16.6846 3.20349 17.2408 3.762C18.363 4.89114 18.9938 6.41782 18.9958 8.00974C18.9979 9.60166 18.3711 11.13 17.2518 12.262L13.6988 15.717C13.5134 15.8988 13.264 16.0007 13.0043 16.0007C12.7446 16.0007 12.4953 15.8988 12.3098 15.717L8.75684 12.277C7.63231 11.1454 7.00114 9.61484 7.00114 8.0195C7.00114 6.42416 7.63231 4.89361 8.75684 3.762ZM22.9988 19.021C22.9994 19.3239 22.931 19.6229 22.7986 19.8953C22.6662 20.1677 22.4734 20.4063 22.2348 20.593C22.0094 20.7742 21.7469 20.9035 21.4659 20.9718C21.1849 21.0401 20.8922 21.0456 20.6088 20.988L18.2638 20.2C17.3768 19.9452 16.4368 19.9396 15.5468 20.184L9.76284 21.892C9.20711 22.0453 8.61899 22.0352 8.06884 21.863L5.17484 20.963C4.54849 20.7819 3.99779 20.4025 3.60543 19.8817C3.21307 19.361 3.00022 18.727 2.99884 18.075V14C2.99659 13.5958 3.07704 13.1954 3.23526 12.8234C3.39347 12.4514 3.6261 12.1157 3.91884 11.837C4.37709 11.4003 4.96085 11.1184 5.58784 11.031C5.99094 12.0302 6.59122 12.9379 7.35284 13.7L10.9198 17.153C11.4773 17.6989 12.2266 18.0046 13.0068 18.0046C13.7871 18.0046 14.5363 17.6989 15.0938 17.153L18.6568 13.69C19.4546 12.889 20.0726 11.9274 20.4698 10.869L21.0068 11.047C21.5892 11.2557 22.093 11.639 22.4495 12.1445C22.806 12.6501 22.9978 13.2534 22.9988 13.872V19.021Z" fill="#074269"/>
</svg>
